<svg xmlns="http://www.w3.org/2000/svg" width="2667" height="2667" version="1" viewBox="0 0 2000 2000">
  <path d="M957 1h-13l-17 2-23 2a233 233 0 0 0-27 3l-10 1-13 1-7 2-6 1a272 272 0 0 0-24 4l-17 3-17 4a1097 1097 0 0 0-188 62l-11 4a1276 1276 0 0 0-123 68 1065 1065 0 0 0-111 82l-8 7a1055 1055 0 0 0-112 115l-5 5-12 15A1002 1002 0 0 0 18 813l-2 6a81 81 0 0 1-1 10l-1 6-1 7-1 6-1 6a449 449 0 0 1-2 15l-1 8a1086 1086 0 0 0-6 197l2 12a844 844 0 0 0 18 123l3 15 2 8 12 47a1048 1048 0 0 0 100 232l14 21a1054 1054 0 0 0 102 136l10 11a1881 1881 0 0 0 67 66 1033 1033 0 0 0 273 175 1021 1021 0 0 0 249 70l7 1 16 3h7l10 1 10 1 10 1 13 1a965 965 0 0 0 146 0h13l11-2 9-1 10-1 8-1 19-2a422 422 0 0 1 28-5l6-1 26-5 19-4a826 826 0 0 0 156-49 1039 1039 0 0 0 281-174l7-6a827 827 0 0 0 80-80 906 906 0 0 0 87-112c32-49 63-105 85-156l6-14a1047 1047 0 0 0 67-244l1-8 1-7 1-9 1-10a354 354 0 0 0 3-32 1628 1628 0 0 0-2-170l-2-11-1-8-1-8a98 98 0 0 0-2-16v-7l-2-7-1-7-3-17c-4-24-6-37-14-68a1010 1010 0 0 0-222-419l-10-11a1918 1918 0 0 0-96-92l-6-5a1155 1155 0 0 0-194-126l-14-6a1038 1038 0 0 0-269-84l-7-1a24420 24420 0 0 1-36-5l-9-1-11-1-10-1-13-1-15-1-101-1zm46 125l4 4v22c-1 4-4 5-28 6a749 749 0 0 0-75 5l-8 1-9 1a375 375 0 0 1-26 4l-12 2-11 2a909 909 0 0 0-258 96l-4 2-43 27a869 869 0 0 0-253 263l-7 12-6 11c-13 21-32 60-43 86l-7 16a980 980 0 0 0-41 137l-2 8a149 149 0 0 0-3 17l-2 12-3 13-3 29-2 11-1 11-3 70c0 8 0 9-3 11-2 3-3 3-13 3s-10 0-13-3l-3-3v-22a1300 1300 0 0 1 7-86l1-8 5-33a936 936 0 0 1 62-208l5-11 26-51a933 933 0 0 1 184-233l10-9 42-34a952 952 0 0 1 181-108l8-4a900 900 0 0 1 174-53l6-1c8-2 17-4 23-4l13-2a2955 2955 0 0 1 22-3l9-1 9-1 11-1 12-1 17-1 14-1h37zm2 140c2 2 3 3 3 12 1 17 0 17-19 18a727 727 0 0 0-102 9l-6 1-6 1h-5a808 808 0 0 0-147 45 723 723 0 0 0-325 282 764 764 0 0 0-85 208l-2 10-3 10-1 8a478 478 0 0 0-6 33l-1 8-1 8a589 589 0 0 0-5 84l-4 4h-22c-5-2-5-4-5-27l1-28 1-13 1-11 1-9 1-9 1-7a221 221 0 0 1 3-21l1-7 3-13 1-8 4-14 2-13a844 844 0 0 1 41-121 760 760 0 0 1 220-284l5-4 8-6 10-8a523 523 0 0 1 70-44l11-7a1027 1027 0 0 1 74-35c11-5 63-23 76-26l20-5a1835 1835 0 0 1 61-13l12-2 7-1 8-1 8-1c12-2 29-3 49-4l14-1 13-1c12 1 13 1 15 3zm-1 144c3 2 4 5 4 16 0 9 0 10-2 13-2 2-3 2-15 3l-39 2h-10l-10 1-7 2-14 2-6 1c-33 5-87 20-116 33l-12 5a604 604 0 0 0-135 84l-13 11a1199 1199 0 0 0-70 74l-22 30c-16 24-36 60-47 85l-5 10a587 587 0 0 0-44 208c0 17 0 17-15 18-10 0-11 0-14-2-3-3-3-3-2-14l1-41 1-11a101 101 0 0 1 2-17 628 628 0 0 1 37-141 627 627 0 0 1 47-93l10-15a617 617 0 0 1 169-168 577 577 0 0 1 214-87l6-1 5-1 7-1 7-1 7-1 8-1a147 147 0 0 1 20-2l17-1h36zm27 139l22 2 8 2 7 1 7 1 6 1 5 1 16 3 14 4a509 509 0 0 1 150 71 466 466 0 0 1 102 103l4 6 4 5a292 292 0 0 0 11 19 510 510 0 0 1 49 116l3 9a362 362 0 0 1 7 39l1 7a114 114 0 0 1 3 17c2 12 2 74-1 88l-1 8a276 276 0 0 1-6 38l-1 9a448 448 0 0 1-157 251l-5 5-5 3-4 4-39 26a462 462 0 0 1-276 61l-8-1-8-1a106 106 0 0 1-15-2l-5-1-5-1-28-6a460 460 0 0 1-291-237 474 474 0 0 1-37-108l-3-13-1-4-1-8-1-7-1-8-1-9c-2-12-2-72 0-86l1-9a142 142 0 0 1 2-15c2-10 8-43 11-52a452 452 0 0 1 408-332h59zm704 447l2 2v23a1041 1041 0 0 1-3 51l-1 10a722 722 0 0 1-60 218c-11 24-25 52-39 76l-4 6a866 866 0 0 1-88 117 816 816 0 0 1-165 134 771 771 0 0 1-208 84l-6 2-21 4-5 1-6 1-9 2a228 228 0 0 1-24 3l-8 1a436 436 0 0 1-70 6h-22l-2-2c-3-3-3-3-3-13-1-11 0-14 4-16l24-1a528 528 0 0 0 113-13 722 722 0 0 0 453-301c15-22 31-49 40-68l3-6a795 795 0 0 0 57-160l3-13 10-55 1-8a801 801 0 0 0 5-84c2-4 7-5 17-5 9 1 9 1 12 3zm137-2c4 2 4 5 3 42l-2 23a475 475 0 0 1-8 74v7a389 389 0 0 1-5 23l-12 58-2 5a892 892 0 0 1-46 132l-5 10a1466 1466 0 0 1-62 111 887 887 0 0 1-516 370l-6 1a156 156 0 0 1-20 5l-8 2-10 1c-10 3-11 3-16 3l-11 3-20 3-7 1-8 1-9 1-8 1-11 1a985 985 0 0 1-85 3c-4-1-5-5-5-15-1-9 0-13 3-15l15-1 48-2 23-2a1120 1120 0 0 1 48-6 326 326 0 0 0 40-8l14-3a904 904 0 0 0 248-98c32-20 66-43 95-66l29-25 39-37c21-21 39-40 54-59l10-11a1035 1035 0 0 0 64-92l10-18a857 857 0 0 0 73-166l3-13 14-54 1-4 8-40 3-16 2-15 1-8 2-18v-11l2-13 1-47c1-15 1-17 6-19 5-1 20-1 23 1zm-286 0c5 3 5 3 5 26a669 669 0 0 1-4 55l-1 8-2 10-1 8a442 442 0 0 1-10 44l-1 5-3 11-8 26a587 587 0 0 1-436 391 627 627 0 0 1-55 9l-8 1c-10 2-30 3-51 3-17 1-18 0-18-15-1-10 0-14 3-15l18-2a777 777 0 0 0 36-2l10-1 9-1a207 207 0 0 0 27-3l6-1 17-4 16-4 4-1 11-3a781 781 0 0 0 57-19 658 658 0 0 0 84-42 563 563 0 0 0 146-129l14-18 34-52a552 552 0 0 0 57-138l1-6a926 926 0 0 0 13-70l1-9 2-48c0-11 0-11 4-13 2-2 4-2 12-2l11 1z"/>
  <path d="M990 637h-12l-15 1-9 1a111 111 0 0 0-13 2 365 365 0 0 0-291 261l-1 5a228 228 0 0 1-4 17l-1 5-1 6-1 6-1 6-1 7-1 10-2 11v49l1 11a1123 1123 0 0 0 5 30 366 366 0 0 0 272 288l15 3 25 5 10 1 11 1h49l11-1 10-1 7-1 6-1 6-1 6-2h4a361 361 0 0 0 285-302l1-13a487 487 0 0 0 1-77l-4-26a360 360 0 0 0-305-297l-8-1-8-1c-9-2-46-3-47-2zm26 304c23 6 40 25 44 48 7 34-17 66-51 72-31 4-60-15-68-46a61 61 0 0 1 75-74z"/>
</svg>
